<svg width="150" height="169" viewBox="0 0 150 169" fill="none" xmlns="http://www.w3.org/2000/svg">
<path d="M145.932 91.819L33.473 27.483C31.254 26.223 28.543 26.223 26.352 27.456C24.133 28.689 22.764 30.989 22.737 33.482L22.08 161.059C22.08 161.059 22.08 161.059 22.08 161.086C22.08 163.551 23.449 165.852 25.613 167.112C26.736 167.742 27.968 168.071 29.228 168.071C30.433 168.071 31.666 167.77 32.761 167.14L145.877 103.926C148.096 102.666 149.465 100.393 149.465 97.873C149.465 97.873 149.465 97.873 149.465 97.846C149.465 95.38 148.123 93.079 145.932 91.819Z" fill="#12B976"/>
<path d="M70.952 44.888C74.225 41.615 73.491 36.126 69.473 33.828L62.185 29.657C59.435 28.085 55.973 28.548 53.733 30.785C50.46 34.058 51.194 39.547 55.212 41.845L62.503 46.014C65.25 47.589 68.712 47.126 70.952 44.888Z" fill="#343434"/>
<path d="M124.459 65.285L90.103 45.631C87.353 44.059 83.894 44.522 81.654 46.759C78.381 50.032 79.115 55.518 83.133 57.816L106.63 71.256L14.931 122.5L15.451 19.107L34.623 30.071C37.345 31.629 40.775 31.169 42.99 28.951L43.094 28.847C46.334 25.607 45.608 20.173 41.631 17.897L12 0.948002C9.78099 -0.311998 7.06999 -0.311998 4.87899 0.921002C2.65999 2.154 1.29099 4.454 1.26399 6.947L0.606995 134.524C0.606995 134.524 0.606995 134.524 0.606995 134.551C0.606995 137.016 1.97599 139.317 4.13999 140.577C5.26299 141.207 6.49499 141.536 7.75499 141.536C8.95999 141.536 10.193 141.235 11.288 140.605L124.404 77.391C126.623 76.131 127.992 73.858 127.992 71.338C127.992 71.338 127.992 71.338 127.992 71.311C127.992 68.845 126.65 66.545 124.459 65.285Z" fill="#343434"/>
</svg>
